<svg width="40" height="28" viewBox="0 0 40 28" fill="none" xmlns="http://www.w3.org/2000/svg">
<path d="M5.88814 27.6C8.1439 27.6 10.115 26.0766 10.6837 23.8937L15.8057 4.23221C16.3635 2.0909 14.7475 0 12.5347 0C11.1884 0 9.97043 0.798989 9.43424 2.03394L1.34251 20.6708C-0.0784014 23.9434 2.32036 27.6 5.88814 27.6ZM29.8548 27.6C32.1106 27.6 34.0817 26.0766 34.6504 23.8937L39.7723 4.2322C40.3302 2.0909 38.7142 0 36.5014 0C35.1551 0 33.9371 0.798989 33.4009 2.03394L25.3092 20.6708C23.8883 23.9434 26.2871 27.6 29.8548 27.6Z" fill="#EAE1D3"/>
</svg>
