<svg width="32" height="32" viewBox="0 0 32 32" fill="none" xmlns="http://www.w3.org/2000/svg">
<path d="M11.0723 15.9057C11.0723 13.0658 13.3659 10.763 16.1961 10.763C19.0262 10.763 21.3211 13.0658 21.3211 15.9057C21.3211 18.7457 19.0262 21.0485 16.1961 21.0485C13.3659 21.0485 11.0723 18.7457 11.0723 15.9057ZM8.3018 15.9057C8.3018 20.2808 11.8361 23.8273 16.1961 23.8273C20.5561 23.8273 24.0903 20.2808 24.0903 15.9057C24.0903 11.5306 20.5561 7.98417 16.1961 7.98417C11.8361 7.98417 8.3018 11.5306 8.3018 15.9057ZM22.558 7.67008C22.5578 8.03622 22.6659 8.39418 22.8685 8.6987C23.0711 9.00321 23.3591 9.2406 23.6962 9.38086C24.0332 9.52111 24.4041 9.55792 24.762 9.48663C25.1199 9.41534 25.4487 9.23916 25.7068 8.98036C25.9649 8.72157 26.1408 8.39178 26.2121 8.0327C26.2834 7.67363 26.2471 7.30139 26.1076 6.96306C25.9681 6.62474 25.7317 6.33552 25.4284 6.13198C25.1251 5.92844 24.7685 5.81973 24.4036 5.81958H24.4028C23.9138 5.81981 23.4448 6.01482 23.0989 6.36179C22.7529 6.70875 22.5584 7.1793 22.558 7.67008ZM9.98505 28.4629C8.48617 28.3944 7.67148 28.1439 7.13007 27.9322C6.4123 27.6518 5.90017 27.3179 5.36172 26.7783C4.82327 26.2387 4.48996 25.7253 4.21176 25.0051C4.00071 24.462 3.75104 23.6443 3.6829 22.1402C3.60837 20.5141 3.59349 20.0256 3.59349 15.9059C3.59349 11.7861 3.6096 11.299 3.6829 9.67151C3.75116 8.16744 4.00267 7.35129 4.21176 6.80666C4.49119 6.08641 4.824 5.5725 5.36172 5.03219C5.89943 4.49187 6.41107 4.15742 7.13007 3.87825C7.67123 3.66647 8.48617 3.41593 9.98505 3.34756C11.6056 3.27277 12.0924 3.25784 16.1961 3.25784C20.2998 3.25784 20.7871 3.27401 22.4089 3.34756C23.9078 3.41606 24.7211 3.66844 25.2639 3.87825C25.9817 4.15742 26.4938 4.49261 27.0323 5.03219C27.5707 5.57176 27.9028 6.08641 28.1822 6.80666C28.3933 7.34969 28.6429 8.16744 28.7111 9.67151C28.7856 11.299 28.8005 11.7861 28.8005 15.9059C28.8005 20.0256 28.7856 20.5127 28.7111 22.1402C28.6428 23.6443 28.3919 24.4618 28.1822 25.0051C27.9028 25.7253 27.57 26.2392 27.0323 26.7783C26.4945 27.3174 25.9817 27.6518 25.2639 27.9322C24.7227 28.144 23.9078 28.3946 22.4089 28.4629C20.7884 28.5377 20.3016 28.5527 16.1961 28.5527C12.0905 28.5527 11.6051 28.5377 9.98505 28.4629ZM9.85776 0.572186C8.22112 0.646976 7.10277 0.907383 6.1261 1.28874C5.11463 1.68256 4.25837 2.2109 3.40273 3.06815C2.54708 3.92539 2.02191 4.78597 1.62945 5.80094C1.24941 6.78161 0.989902 7.90321 0.915369 9.54551C0.839607 11.1904 0.822266 11.7163 0.822266 15.9057C0.822266 20.0952 0.839607 20.6211 0.915369 22.266C0.989902 23.9084 1.24941 25.0299 1.62945 26.0105C2.02191 27.0249 2.54721 27.8865 3.40273 28.7433C4.25825 29.6002 5.11463 30.1278 6.1261 30.5227C7.10462 30.9041 8.22112 31.1645 9.85776 31.2393C11.4978 31.3141 12.021 31.3327 16.1961 31.3327C20.3711 31.3327 20.8952 31.3153 22.5344 31.2393C24.1711 31.1645 25.2887 30.9041 26.266 30.5227C27.2769 30.1278 28.1338 29.6006 28.9894 28.7433C29.8451 27.8861 30.3691 27.0249 30.7627 26.0105C31.1427 25.0299 31.4035 23.9083 31.4768 22.266C31.5513 20.6199 31.5686 20.0952 31.5686 15.9057C31.5686 11.7163 31.5513 11.1904 31.4768 9.54551C31.4022 7.90309 31.1427 6.78099 30.7627 5.80094C30.3691 4.78659 29.8437 3.92675 28.9894 3.06815C28.1351 2.20954 27.2769 1.68256 26.2673 1.28874C25.2887 0.907383 24.171 0.645741 22.5356 0.572186C20.8964 0.497396 20.3723 0.47876 16.1973 0.47876C12.0223 0.47876 11.4978 0.496161 9.85776 0.572186Z" fill="white"/>
<path d="M11.0723 15.9057C11.0723 13.0658 13.3659 10.763 16.1961 10.763C19.0262 10.763 21.3211 13.0658 21.3211 15.9057C21.3211 18.7457 19.0262 21.0485 16.1961 21.0485C13.3659 21.0485 11.0723 18.7457 11.0723 15.9057ZM8.3018 15.9057C8.3018 20.2808 11.8361 23.8273 16.1961 23.8273C20.5561 23.8273 24.0903 20.2808 24.0903 15.9057C24.0903 11.5306 20.5561 7.98417 16.1961 7.98417C11.8361 7.98417 8.3018 11.5306 8.3018 15.9057ZM22.558 7.67008C22.5578 8.03622 22.6659 8.39418 22.8685 8.6987C23.0711 9.00321 23.3591 9.2406 23.6962 9.38086C24.0332 9.52111 24.4041 9.55792 24.762 9.48663C25.1199 9.41534 25.4487 9.23916 25.7068 8.98036C25.9649 8.72157 26.1408 8.39178 26.2121 8.0327C26.2834 7.67363 26.2471 7.30139 26.1076 6.96306C25.9681 6.62474 25.7317 6.33552 25.4284 6.13198C25.1251 5.92844 24.7685 5.81973 24.4036 5.81958H24.4028C23.9138 5.81981 23.4448 6.01482 23.0989 6.36179C22.7529 6.70875 22.5584 7.1793 22.558 7.67008ZM9.98505 28.4629C8.48617 28.3944 7.67148 28.1439 7.13007 27.9322C6.4123 27.6518 5.90017 27.3179 5.36172 26.7783C4.82327 26.2387 4.48996 25.7253 4.21176 25.0051C4.00071 24.462 3.75104 23.6443 3.6829 22.1402C3.60837 20.5141 3.59349 20.0256 3.59349 15.9059C3.59349 11.7861 3.6096 11.299 3.6829 9.67151C3.75116 8.16744 4.00267 7.35129 4.21176 6.80666C4.49119 6.08641 4.824 5.5725 5.36172 5.03219C5.89943 4.49187 6.41107 4.15742 7.13007 3.87825C7.67123 3.66647 8.48617 3.41593 9.98505 3.34756C11.6056 3.27277 12.0924 3.25784 16.1961 3.25784C20.2998 3.25784 20.7871 3.27401 22.4089 3.34756C23.9078 3.41606 24.7211 3.66844 25.2639 3.87825C25.9817 4.15742 26.4938 4.49261 27.0323 5.03219C27.5707 5.57176 27.9028 6.08641 28.1822 6.80666C28.3933 7.34969 28.6429 8.16744 28.7111 9.67151C28.7856 11.299 28.8005 11.7861 28.8005 15.9059C28.8005 20.0256 28.7856 20.5127 28.7111 22.1402C28.6428 23.6443 28.3919 24.4618 28.1822 25.0051C27.9028 25.7253 27.57 26.2392 27.0323 26.7783C26.4945 27.3174 25.9817 27.6518 25.2639 27.9322C24.7227 28.144 23.9078 28.3946 22.4089 28.4629C20.7884 28.5377 20.3016 28.5527 16.1961 28.5527C12.0905 28.5527 11.6051 28.5377 9.98505 28.4629ZM9.85776 0.572186C8.22112 0.646976 7.10277 0.907383 6.1261 1.28874C5.11463 1.68256 4.25837 2.2109 3.40273 3.06815C2.54708 3.92539 2.02191 4.78597 1.62945 5.80094C1.24941 6.78161 0.989902 7.90321 0.915369 9.54551C0.839607 11.1904 0.822266 11.7163 0.822266 15.9057C0.822266 20.0952 0.839607 20.6211 0.915369 22.266C0.989902 23.9084 1.24941 25.0299 1.62945 26.0105C2.02191 27.0249 2.54721 27.8865 3.40273 28.7433C4.25825 29.6002 5.11463 30.1278 6.1261 30.5227C7.10462 30.9041 8.22112 31.1645 9.85776 31.2393C11.4978 31.3141 12.021 31.3327 16.1961 31.3327C20.3711 31.3327 20.8952 31.3153 22.5344 31.2393C24.1711 31.1645 25.2887 30.9041 26.266 30.5227C27.2769 30.1278 28.1338 29.6006 28.9894 28.7433C29.8451 27.8861 30.3691 27.0249 30.7627 26.0105C31.1427 25.0299 31.4035 23.9083 31.4768 22.266C31.5513 20.6199 31.5686 20.0952 31.5686 15.9057C31.5686 11.7163 31.5513 11.1904 31.4768 9.54551C31.4022 7.90309 31.1427 6.78099 30.7627 5.80094C30.3691 4.78659 29.8437 3.92675 28.9894 3.06815C28.1351 2.20954 27.2769 1.68256 26.2673 1.28874C25.2887 0.907383 24.171 0.645741 22.5356 0.572186C20.8964 0.497396 20.3723 0.47876 16.1973 0.47876C12.0223 0.47876 11.4978 0.496161 9.85776 0.572186Z" fill="white"/>
</svg>
