<svg width="26" height="26" viewBox="0 0 26 26" fill="none" xmlns="http://www.w3.org/2000/svg">
<path d="M6.03547 25.3198V8.66551H0.522234V25.3198H6.03605H6.03547ZM3.28 6.39205C5.20218 6.39205 6.39887 5.11319 6.39887 3.51499C6.36289 1.88037 5.20218 0.637207 3.31656 0.637207C1.42964 0.637207 0.197266 1.88037 0.197266 3.51484C0.197266 5.11305 1.39352 6.3919 3.24388 6.3919H3.27957L3.28 6.39205ZM9.08712 25.3198H14.5999V16.0203C14.5999 15.5232 14.6359 15.0248 14.7816 14.6698C15.1799 13.6749 16.087 12.645 17.6104 12.645C19.6049 12.645 20.4032 14.1721 20.4032 16.4112V25.3198H25.9158V15.7707C25.9158 10.6555 23.1963 8.27507 19.5692 8.27507C16.5954 8.27507 15.2893 9.94393 14.5637 11.0806H14.6004V8.66609H9.08741C9.15937 10.2285 9.08698 25.3204 9.08698 25.3204L9.08712 25.3198Z" fill="white"/>
</svg>
