<svg width="184" height="32" viewBox="0 0 184 32" fill="none" xmlns="http://www.w3.org/2000/svg">
<g opacity="0.6">
<path d="M27.9031 14.1633C27.3919 14.5969 27.0004 15.1201 26.7566 15.6957C26.5127 16.2713 26.4224 16.8852 26.4922 17.4935L26.4679 17.4731C26.5396 18.1892 26.4251 18.9099 26.1323 19.5848C25.8394 20.2598 25.3754 20.8728 24.7725 21.3809C24.1697 21.8891 23.4425 22.2803 22.6418 22.5271C21.8411 22.7739 20.9861 22.8705 20.1366 22.81L20.1608 22.8305C19.1446 22.7508 18.1239 22.9372 17.238 23.3643C16.352 23.7915 15.6439 24.4386 15.2103 25.2173C14.7766 25.9961 14.6384 26.8687 14.8146 27.7161C14.9908 28.5635 15.4727 29.3445 16.1947 29.9526C16.9167 30.5607 17.8437 30.9662 18.8491 31.114C19.8546 31.2617 20.8896 31.1444 21.8132 30.7782C22.7367 30.4119 23.5037 29.8144 24.0096 29.0672C24.5155 28.3201 24.7358 27.4595 24.6403 26.603L24.6659 26.6234C24.5942 25.9073 24.7087 25.1866 25.0016 24.5117C25.2944 23.8367 25.7584 23.2238 26.3613 22.7156C26.9641 22.2074 27.6913 21.8163 28.492 21.5694C29.2927 21.3226 30.1477 21.226 30.9973 21.2865L30.9716 21.266C31.8018 21.329 32.6373 21.2142 33.4008 20.9325C34.1644 20.6507 34.8312 20.2111 35.3394 19.6542C35.8477 19.0974 36.181 18.4415 36.3084 17.7472C36.4359 17.0528 36.3533 16.3426 36.0685 15.6824C35.7836 15.0221 35.3056 14.4332 34.6788 13.9701C34.052 13.507 33.2966 13.1848 32.4828 13.0333C31.6689 12.8818 30.8228 12.906 30.0229 13.1035C29.2231 13.3011 28.4953 13.6656 27.9071 14.1633H27.9031Z" fill="#1D2130"/>
<path d="M17.9528 20.1495L17.9271 20.129C18.6492 20.1903 19.3784 20.1156 20.062 19.9103C20.7456 19.705 21.3666 19.3741 21.8799 18.9417C22.3933 18.5093 22.7862 17.9862 23.0303 17.4101C23.2744 16.834 23.3636 16.2194 23.2914 15.6107L23.317 15.6311C23.2453 14.915 23.3599 14.1943 23.6527 13.5194C23.9455 12.8444 24.4095 12.2315 25.0124 11.7233C25.6153 11.2151 26.3424 10.8239 27.1431 10.5771C27.9439 10.3303 28.7988 10.2337 29.6484 10.2942L29.6228 10.2737C30.6391 10.3542 31.6601 10.1684 32.5465 9.74172C33.433 9.31505 34.1417 8.66827 34.5761 7.8896C35.0104 7.11092 35.1492 6.23826 34.9736 5.39063C34.7979 4.54301 34.3163 3.7617 33.5945 3.15327C32.8727 2.54483 31.9459 2.1389 30.9403 1.99083C29.9347 1.84276 28.8995 1.95977 27.9757 2.3259C27.0519 2.69202 26.2847 3.28944 25.7785 4.03666C25.2723 4.78389 25.0519 5.64454 25.1474 6.50123L25.1231 6.47962C25.1951 7.19579 25.0807 7.91657 24.7879 8.59162C24.4952 9.26666 24.0312 9.8797 23.4282 10.3879C22.8253 10.8961 22.0981 11.2873 21.2972 11.5341C20.4964 11.7808 19.6413 11.8772 18.7917 11.8166L18.816 11.8382C18.0939 11.7769 17.3647 11.8516 16.6811 12.0569C15.9975 12.2622 15.3766 12.5931 14.8632 13.0255C14.3499 13.4579 13.9569 13.981 13.7128 14.5571C13.4687 15.1332 13.3795 15.7478 13.4517 16.3565L13.4275 16.3361C13.4989 17.0521 13.3842 17.7727 13.0913 18.4476C12.7984 19.1225 12.3344 19.7353 11.7316 20.2435C11.1288 20.7516 10.4017 21.1428 9.60108 21.3897C8.80048 21.6366 7.94561 21.7333 7.0961 21.673L7.12038 21.6935C6.10407 21.613 5.08306 21.7988 4.1966 22.2255C3.31015 22.6521 2.60142 23.2989 2.16707 24.0776C1.73273 24.8563 1.59392 25.7289 1.76957 26.5765C1.94523 27.4242 2.4268 28.2055 3.14861 28.8139C3.87041 29.4223 4.7973 29.8283 5.80286 29.9764C6.80841 30.1244 7.84367 30.0074 8.76744 29.6413C9.6912 29.2752 10.4585 28.6777 10.9647 27.9305C11.4708 27.1833 11.6912 26.3226 11.5958 25.466L11.6214 25.4864C11.5497 24.7703 11.6642 24.0496 11.9571 23.3746C12.2499 22.6997 12.7139 22.0867 13.3168 21.5786C13.9196 21.0704 14.6468 20.6792 15.4475 20.4324C16.2482 20.1856 17.1032 20.089 17.9528 20.1495Z" fill="#1D2130"/>
<path d="M8.91302 17.8676C9.42426 17.4342 9.81567 16.9109 10.0593 16.3353C10.303 15.7596 10.3928 15.1457 10.3225 14.5374L10.3482 14.5579C10.2764 13.8415 10.391 13.1206 10.684 12.4455C10.977 11.7704 11.4412 11.1573 12.0444 10.6491C12.6476 10.1409 13.3751 9.74975 14.1761 9.50307C14.9772 9.2564 15.8325 9.1601 16.6822 9.2209L16.6566 9.20044C17.6726 9.28067 18.6932 9.09479 19.5792 8.66816C20.4652 8.24152 21.1736 7.5949 21.6077 6.81646C22.0418 6.03803 22.1804 5.16568 22.0048 4.31838C21.8292 3.47107 21.3477 2.69006 20.6262 2.08185C19.9047 1.47364 18.9781 1.06783 17.9729 0.919767C16.9678 0.771706 15.9329 0.888599 15.0094 1.2545C14.0859 1.62041 13.3188 2.21751 12.8127 2.96439C12.3066 3.71127 12.086 4.57157 12.1812 5.42796L12.1569 5.40749C12.2287 6.12362 12.1141 6.84431 11.8213 7.51926C11.5285 8.19422 11.0644 8.80717 10.4616 9.31535C9.8587 9.82353 9.13153 10.2147 8.33082 10.4615C7.5301 10.7083 6.67513 10.8049 5.82557 10.7444L5.84985 10.7649C5.01975 10.7022 4.18428 10.8171 3.42088 11.0989C2.65747 11.3808 1.99082 11.8206 1.4827 12.3774C0.974589 12.9343 0.641447 13.5903 0.514152 14.2846C0.386856 14.9789 0.469524 15.689 0.754496 16.3492C1.03947 17.0094 1.51752 17.5983 2.14436 18.0613C2.7712 18.5242 3.52654 18.8464 4.34039 18.9978C5.15423 19.1492 6.00025 19.125 6.80006 18.9274C7.59986 18.7299 8.32755 18.3653 8.91572 17.8676H8.91302Z" fill="#1D2130"/>
<path d="M50.6954 6.52738H54.7014V22.9601H50.6954V6.52738Z" fill="#1D2130"/>
<path d="M56.9702 17.3332C56.9646 16.1523 57.3749 14.9965 58.1491 14.0124C58.9234 13.0282 60.0267 12.2598 61.3194 11.8046C62.6121 11.3494 64.036 11.2279 65.4107 11.4554C66.7854 11.6828 68.0491 12.2491 69.0417 13.0825C70.0343 13.9158 70.7112 14.9788 70.9866 16.1367C71.2619 17.2945 71.1235 18.4953 70.5886 19.5867C70.0538 20.6782 69.1467 21.6114 67.9823 22.2679C66.8178 22.9245 65.4484 23.275 64.0474 23.275C63.1175 23.284 62.1947 23.1365 61.3332 22.8414C60.4716 22.5463 59.6884 22.1093 59.0295 21.5561C58.3705 21.0029 57.849 20.3445 57.4955 19.6194C57.1419 18.8943 56.9633 18.1171 56.9702 17.3332ZM67.1187 17.3332C67.102 16.8242 66.9076 16.3306 66.56 15.9142C66.2123 15.4978 65.7267 15.177 65.1639 14.9919C64.6011 14.8068 63.9861 14.7657 63.3958 14.8737C62.8054 14.9817 62.2659 15.2339 61.8447 15.599C61.4235 15.964 61.1393 16.4256 61.0276 16.926C60.9159 17.4264 60.9817 17.9435 61.2168 18.4126C61.4518 18.8817 61.8457 19.282 62.3492 19.5634C62.8526 19.8448 63.4433 19.9949 64.0474 19.9949C64.4612 20.0042 64.8727 19.9411 65.256 19.8097C65.6394 19.6783 65.9863 19.4813 66.2749 19.2312C66.5634 18.9811 66.7874 18.6834 66.9326 18.3567C67.0778 18.03 67.1412 17.6815 67.1187 17.3332Z" fill="#1D2130"/>
<path d="M87.0906 11.7052V22.3927C87.0906 26.1743 83.5918 27.7729 80.0403 27.7729C78.7899 27.8518 77.5379 27.6389 76.4215 27.1575C75.3051 26.6762 74.3676 25.945 73.7117 25.0442L77.1296 23.3785C77.4053 23.8481 77.8445 24.2355 78.3886 24.4889C78.9326 24.7422 79.5555 24.8495 80.1739 24.7963C80.5691 24.8425 80.9715 24.8131 81.3515 24.7105C81.7314 24.6078 82.0791 24.4345 82.3688 24.2032C82.6585 23.972 82.8829 23.6888 83.0252 23.3747C83.1676 23.0605 83.2243 22.7233 83.1912 22.3882V21.3592C82.7221 21.8431 82.125 22.2274 81.4478 22.4816C80.7706 22.7357 80.0322 22.8525 79.2917 22.8225C77.5299 22.7757 75.8589 22.1528 74.6322 21.0857C73.4056 20.0186 72.7197 18.5911 72.7197 17.1052C72.7197 15.6194 73.4056 14.1918 74.6322 13.1248C75.8589 12.0577 77.5299 11.4348 79.2917 11.388C80.0322 11.358 80.7706 11.4748 81.4478 11.7289C82.125 11.983 82.7221 12.3674 83.1912 12.8513V11.7029L87.0906 11.7052ZM83.1925 17.1069C83.2195 16.5627 83.0526 16.0242 82.7133 15.5606C82.3741 15.0971 81.878 14.7297 81.289 14.5058C80.6999 14.2818 80.0449 14.2116 79.4081 14.3042C78.7713 14.3968 78.182 14.6478 77.7159 15.0251C77.2499 15.4024 76.9284 15.8886 76.7929 16.4212C76.6575 16.9537 76.7142 17.5083 76.9558 18.0135C77.1974 18.5186 77.6128 18.9513 78.1486 19.2558C78.6843 19.5603 79.3159 19.7226 79.9621 19.722C80.383 19.7467 80.8054 19.6969 81.2021 19.5757C81.5987 19.4545 81.9609 19.2646 82.2652 19.0183C82.5696 18.7719 82.8093 18.4746 82.969 18.1454C83.1287 17.8162 83.2049 17.4625 83.1925 17.1069Z" fill="#1D2130"/>
<path d="M89.3593 17.3332C89.3537 16.1523 89.764 14.9965 90.5383 14.0124C91.3125 13.0282 92.4158 12.2598 93.7085 11.8046C95.0012 11.3494 96.4251 11.2279 97.7998 11.4554C99.1746 11.6828 100.438 12.2491 101.431 13.0825C102.423 13.9158 103.1 14.9788 103.376 16.1367C103.651 17.2945 103.513 18.4953 102.978 19.5867C102.443 20.6782 101.536 21.6114 100.371 22.2679C99.207 22.9245 97.8375 23.275 96.4366 23.275C95.5066 23.284 94.5839 23.1365 93.7223 22.8414C92.8607 22.5463 92.0776 22.1093 91.4186 21.5561C90.7597 21.0029 90.2382 20.3445 89.8846 19.6194C89.531 18.8943 89.3524 18.1171 89.3593 17.3332ZM99.5078 17.3332C99.4911 16.8242 99.2968 16.3306 98.9491 15.9142C98.6014 15.4978 98.1159 15.177 97.5531 14.9919C96.9903 14.8068 96.3753 14.7657 95.7849 14.8737C95.1945 14.9817 94.655 15.2339 94.2338 15.599C93.8126 15.964 93.5284 16.4256 93.4168 16.926C93.3051 17.4264 93.3709 17.9435 93.6059 18.4126C93.841 18.8817 94.2349 19.282 94.7383 19.5634C95.2418 19.8448 95.8325 19.9949 96.4366 19.9949C96.8503 20.0042 97.2618 19.9411 97.6452 19.8097C98.0285 19.6783 98.3755 19.4813 98.664 19.2312C98.9526 18.9811 99.1765 18.6834 99.3218 18.3567C99.467 18.03 99.5303 17.6815 99.5078 17.3332Z" fill="#1D2130"/>
<path d="M105.382 8.68878C105.382 8.28805 105.523 7.89633 105.787 7.56314C106.051 7.22996 106.427 6.97026 106.866 6.81691C107.305 6.66356 107.788 6.62344 108.254 6.70162C108.721 6.7798 109.149 6.97276 109.485 7.25612C109.821 7.53947 110.05 7.90048 110.143 8.2935C110.236 8.68653 110.188 9.09391 110.006 9.46412C109.824 9.83434 109.516 10.1508 109.121 10.3734C108.726 10.596 108.261 10.7149 107.786 10.7149C107.15 10.7095 106.542 10.4944 106.093 10.1155C105.644 9.73673 105.388 9.22447 105.382 8.68878ZM105.787 11.7052H109.794V22.9612H105.781L105.787 11.7052Z" fill="#1D2130"/>
<path d="M127.091 17.3332C127.138 18.0771 127.009 18.8214 126.713 19.5232C126.417 20.2251 125.959 20.8706 125.366 21.4228C124.773 21.975 124.056 22.4229 123.257 22.7408C122.457 23.0587 121.591 23.2402 120.709 23.275C119.966 23.3091 119.224 23.2036 118.536 22.9661C117.848 22.7285 117.232 22.3649 116.731 21.9015V27.4625H112.725V11.7052H116.731V12.7625C117.232 12.2995 117.849 11.9362 118.537 11.6989C119.225 11.4615 119.966 11.3561 120.709 11.3902C121.592 11.4249 122.458 11.6063 123.257 11.9242C124.057 12.2421 124.773 12.6901 125.367 13.2425C125.96 13.7948 126.418 14.4406 126.714 15.1426C127.01 15.8447 127.138 16.5891 127.091 17.3332ZM123.085 17.3332C123.07 16.8064 122.87 16.2952 122.511 15.8636C122.153 15.4319 121.651 15.0991 121.069 14.9066C120.487 14.7141 119.851 14.6706 119.24 14.7815C118.629 14.8924 118.07 15.1528 117.633 15.5301C117.197 15.9074 116.902 16.3848 116.786 16.9025C116.67 17.4203 116.737 17.9555 116.98 18.441C117.223 18.9266 117.631 19.341 118.152 19.6323C118.672 19.9237 119.284 20.079 119.909 20.079C120.338 20.0951 120.766 20.0345 121.166 19.9013C121.565 19.7681 121.927 19.5652 122.227 19.3059C122.527 19.0466 122.758 18.7369 122.906 18.3969C123.054 18.0569 123.115 17.6944 123.085 17.3332Z" fill="#1D2130"/>
<path d="M139.453 19.5833C139.453 22.1722 136.784 23.275 133.9 23.275C132.735 23.364 131.565 23.1563 130.541 22.6787C129.518 22.2012 128.688 21.4758 128.158 20.5963L131.629 18.9307C131.769 19.3372 132.071 19.6908 132.483 19.9325C132.895 20.1742 133.394 20.2893 133.895 20.2586C134.855 20.2586 135.337 20.0108 135.337 19.5617C135.337 18.3224 128.767 18.9761 128.767 15.082C128.767 12.6273 131.224 11.3902 134.001 11.3902C135.045 11.3624 136.079 11.5711 136.995 11.9947C137.911 12.4182 138.675 13.0411 139.208 13.7984L135.79 15.3515C135.64 15.0566 135.39 14.8055 135.072 14.6294C134.754 14.4533 134.382 14.36 134.001 14.3612C133.307 14.3612 132.879 14.5886 132.879 14.991C132.884 16.2747 139.453 15.4185 139.453 19.5833Z" fill="#1D2130"/>
<path d="M154.087 11.7052V22.9612H150.081V21.9027C149.618 22.3698 149.032 22.7378 148.368 22.9766C147.704 23.2153 146.983 23.318 146.263 23.2762C143.566 23.2762 141.273 21.656 141.273 18.6146V11.7052H145.279V18.12C145.245 18.3881 145.281 18.6591 145.385 18.9142C145.488 19.1693 145.656 19.4023 145.877 19.5971C146.098 19.7919 146.367 19.9437 146.665 20.0421C146.963 20.1404 147.282 20.1829 147.601 20.1666C149.07 20.1666 150.085 19.4468 150.085 17.8483V11.7086L154.087 11.7052Z" fill="#1D2130"/>
<path d="M177.057 16.0496V22.9601H173.051V16.3418C173.051 15.2162 172.41 14.4965 171.129 14.4965C169.794 14.4965 169.045 15.2844 169.045 16.6124V22.9601H165.041V16.3418C165.041 15.2162 164.4 14.4965 163.117 14.4965C161.782 14.4965 161.035 15.2844 161.035 16.6124V22.9601H157.029V11.7041H161.035V12.7387C161.45 12.2797 161.995 11.9157 162.62 11.68C163.245 11.4442 163.93 11.3442 164.613 11.3892C165.298 11.3609 165.981 11.4828 166.594 11.7431C167.207 12.0033 167.729 12.3929 168.11 12.874C168.554 12.3707 169.142 11.9705 169.82 11.7108C170.497 11.4512 171.241 11.3405 171.983 11.3892C175.049 11.3903 177.057 13.2356 177.057 16.0496Z" fill="#1D2130"/>
<path d="M180.445 11.6359C182.087 11.6359 183.418 10.5139 183.418 9.12996C183.418 7.746 182.087 6.62408 180.445 6.62408C178.803 6.62408 177.473 7.746 177.473 9.12996C177.473 10.5139 178.803 11.6359 180.445 11.6359Z" fill="#1D2130"/>
</g>
</svg>
