<svg width="63" height="62" viewBox="0 0 63 62" fill="none" xmlns="http://www.w3.org/2000/svg">
<path d="M16.2812 45.0988L18.486 36.8751C16.7079 33.6715 16.143 29.9332 16.8949 26.3462C17.6468 22.7591 19.6651 19.5639 22.5795 17.347C25.4938 15.13 29.1087 14.0399 32.7607 14.2767C36.4128 14.5136 39.8571 16.0614 42.4616 18.6363C45.0661 21.2112 46.6561 24.6404 46.9398 28.2946C47.2235 31.9488 46.182 35.5829 44.0062 38.5301C41.8304 41.4772 38.6665 43.5398 35.0948 44.3392C31.5232 45.1386 27.7836 44.6212 24.5621 42.8821L16.2812 45.0988ZM24.9614 39.8047L25.4735 40.1089C27.8069 41.4941 30.5322 42.0673 33.2249 41.7392C35.9175 41.4111 38.4261 40.2002 40.3599 38.2952C42.2936 36.3901 43.5437 33.8979 43.9155 31.207C44.2873 28.5161 43.7599 25.7775 42.4154 23.4182C41.0708 21.0588 38.9848 19.2112 36.4823 18.1631C33.9798 17.1151 31.2014 16.9256 28.5801 17.6241C25.9588 18.3226 23.6419 19.8699 21.9904 22.0249C20.3388 24.1799 19.4455 26.8215 19.4495 29.538C19.4473 31.7905 20.0693 33.9994 21.2463 35.9188L21.5674 36.4491L20.3349 41.0391L24.9614 39.8047Z" fill="white"/>
<path fill-rule="evenodd" clip-rule="evenodd" d="M37.3912 31.6495C37.091 31.407 36.7394 31.2363 36.3634 31.1505C35.9873 31.0646 35.5967 31.0658 35.2212 31.154C34.6569 31.3887 34.2924 32.2755 33.9278 32.7188C33.8509 32.8251 33.738 32.8996 33.6101 32.9284C33.4823 32.9572 33.3483 32.9383 33.2334 32.8753C31.1678 32.065 29.4364 30.5792 28.3205 28.6591C28.2253 28.5393 28.1802 28.3871 28.1948 28.2347C28.2094 28.0823 28.2824 27.9415 28.3986 27.8419C28.8052 27.4388 29.1037 26.9395 29.2666 26.3902C29.3028 25.7843 29.1642 25.1807 28.8673 24.6515C28.6378 23.9096 28.2011 23.249 27.6087 22.7477C27.3032 22.6101 26.9644 22.5639 26.6332 22.6149C26.3021 22.6658 25.9927 22.8115 25.7425 23.0346C25.308 23.41 24.9632 23.8782 24.7333 24.4048C24.5035 24.9314 24.3945 25.5029 24.4144 26.0772C24.4158 26.3997 24.4566 26.7209 24.5359 27.0335C24.7375 27.7845 25.0475 28.502 25.456 29.1633C25.7508 29.6699 26.0724 30.1603 26.4195 30.6324C27.5475 32.1833 28.9655 33.5 30.5947 34.5096C31.4122 35.0226 32.2859 35.4397 33.1987 35.7527C34.1468 36.1832 35.1937 36.3484 36.228 36.2309C36.8174 36.1415 37.3758 35.9085 37.8541 35.5522C38.3324 35.196 38.7159 34.7275 38.971 34.188C39.1208 33.862 39.1663 33.4976 39.1012 33.1448C38.9449 32.4232 37.9814 31.9973 37.3912 31.6495Z" fill="white"/>
</svg>
