<svg width="63" height="62" viewBox="0 0 63 62" fill="none" xmlns="http://www.w3.org/2000/svg">
<path d="M48.6557 22.3469C48.2544 20.8336 47.0674 19.6397 45.5572 19.2306C42.8264 18.4963 31.8701 18.4963 31.8701 18.4963C31.8701 18.4963 20.9194 18.4963 18.1831 19.2306C16.6784 19.6341 15.4914 20.8279 15.0845 22.3469C14.3545 25.0932 14.3545 30.827 14.3545 30.827C14.3545 30.827 14.3545 36.5607 15.0845 39.3071C15.4858 40.8204 16.6728 42.0142 18.1831 42.4234C20.9194 43.1576 31.8701 43.1576 31.8701 43.1576C31.8701 43.1576 42.8264 43.1576 45.5572 42.4234C47.0618 42.0198 48.2489 40.826 48.6557 39.3071C49.3857 36.5607 49.3857 30.827 49.3857 30.827C49.3857 30.827 49.3857 25.0932 48.6557 22.3469Z" fill="white"/>
<path d="M28.3703 36.1123L37.4709 30.827L28.3703 25.5416V36.1123Z" fill="#232629"/>
</svg>
